Coordinates
version=1
nRows=10
nColumns=33
inDegrees=yes

Units are S.I. units (second, meters, Newtons, ...)
Angles are in degrees.

endheader
time	ground_thorax_rot_x	ground_thorax_rot_y	ground_thorax_rot_z	ground_thorax_tx	ground_thorax_ty	ground_thorax_tz	clav_prot_r	clav_elev_r	scapula_abduction_r	scapula_elevation_r	scapula_upward_rot_r	scapula_winging_r	shoulder_elv_r	plane_of_elev_r	axial_rot_r	elbow_flexion_r	pro_sup_r	wrist_flex_r	wrist_dev_r	clav_prot_l	clav_elev_l	scapula_abduction_l	scapula_elevation_l	scapula_upward_rot_l	scapula_winging_l	shoulder_elv_l	plane_of_elev_l	axial_rot_l	elbow_flexion_l	pro_sup_l	wrist_flex_l	wrist_dev_l
      2.28000000	     -0.45874700	      1.19620293	     11.78031042	     -0.11721660	      1.03353888	      0.01040449	      7.17727687	    -12.86592250	     12.27795032	     -5.12942297	     -1.03972165	     -0.47348018	    -27.00088896	    -79.56019008	    113.07667309	    -83.45199698	   -166.74812671	     23.43259186	    -12.74597132	     12.85569110	     -2.14649530	    -17.51238922	    -19.40900553	    -34.83163893	      1.12771655	     59.25823018	    -29.63870858	     -0.07483693	     69.13923319	      4.82991819	     13.73737883	    -17.26770811
      2.29000000	     -0.40132648	      1.25800306	     11.84045855	     -0.11723297	      1.03415664	      0.01034739	      6.76815265	    -12.61931353	     11.36264377	     -4.71544980	     -1.50670199	     -0.23069482	    -28.94120485	    -80.14612636	    111.54736271	    -83.09763454	   -164.72637009	     26.78702149	    -15.04566708	     12.30610990	     -1.79336796	    -16.46025574	    -19.64272176	    -34.53580456	      0.66297389	     59.51508685	    -31.01252967	     -1.46021727	     69.61551205	      6.11068303	     12.29257961	    -19.70883047
      2.30000000	     -0.29351861	      1.00001331	     11.77624031	     -0.11716767	      1.03450493	      0.01007840	      6.54480633	    -12.19626416	     11.02968659	     -4.38124344	     -1.37321272	     -0.30364120	    -31.64254869	    -80.75697663	    109.65227174	    -82.77472980	   -163.01686973	     29.15094529	    -16.62902435	     11.72777682	     -1.30463824	    -15.33625257	    -20.01143291	    -34.23720120	      0.15729380	     59.23660211	    -32.19175140	     -2.03927833	     70.02079137	      7.39251870	     11.14627196	    -21.85420650
      2.31000000	     -0.24828801	      0.89517621	     11.70852792	     -0.11773775	      1.03414270	      0.00989882	      6.46749298	    -11.69822716	     10.66700187	     -3.72138255	     -1.84059519	     -0.36617751	    -32.14950095	    -81.10387506	    109.64429251	    -82.97841593	   -162.84924255	     29.38713229	    -16.71408086	     11.62743284	     -0.88502235	    -15.17780929	    -20.60818451	    -34.61417741	     -0.02588855	     59.04243848	    -33.00563075	     -2.17832961	     70.84742490	      7.43136880	     11.10912342	    -22.14468376
      2.32000000	     -0.17790567	      1.04426453	     11.80977051	     -0.11804643	      1.03447310	      0.00994251	      6.25398702	    -11.32216521	     10.05011790	     -3.15063736	     -2.36782670	     -0.27266005	    -33.98378952	    -81.19675262	    107.85959906	    -82.34325916	   -160.68568860	     32.36729171	    -18.43160755	     11.36130708	     -0.59021976	    -14.64210688	    -20.83206397	    -34.44181584	     -0.26746717	     59.21075974	    -34.17573742	     -3.54918762	     71.01751656	      8.97139800	     10.02985556	    -24.28900776
      2.33000000	     -0.06094379	      0.71197080	     11.63522000	     -0.11793109	      1.03476619	      0.00959096	      6.04838231	    -10.89441483	      9.93292732	     -3.00337041	     -1.78970800	     -0.43625144	    -37.22970847	    -81.84420185	    105.67865590	    -81.58847828	   -158.60637811	     34.80432672	    -19.98848837	     10.87254776	     -0.07126580	    -13.65188016	    -21.23216841	    -34.14751298	     -0.71695722	     58.57968517	    -35.03924205	     -3.66698107	     71.21080352	     10.54469312	      8.86127087	    -24.99999983
      2.34000000	     -0.08154022	      0.69217068	     11.70285089	     -0.11842842	      1.03462959	      0.00936775	      6.02275068	    -10.45890561	      9.60776724	     -2.35172086	     -2.36569537	     -0.45838660	    -37.66867338	    -81.92247486	    105.58949778	    -81.31453838	   -158.45959218	     34.91912583	    -20.05299959	     10.81550801	      0.25780367	    -13.56928272	    -21.73897108	    -34.51582529	     -0.86870342	     58.45390152	    -35.89168036	     -3.92957324	     71.66745158	     10.61555750	      8.82790744	    -24.99999983
      2.35000000	     -0.14613665	      0.78278371	     11.71869663	     -0.11894528	      1.03493599	      0.00950866	      6.00209595	    -10.20515580	      9.50787799	     -2.06904107	     -2.47444659	     -0.51102158	    -40.48201690	    -81.59678795	    102.82184203	    -80.01061618	   -155.50472941	     38.35859155	    -21.74673840	     10.67942332	      0.48489230	    -13.27433085	    -21.91231199	    -34.38865579	     -1.00198076	     58.61831509	    -37.00771989	     -5.22718290	     71.89748857	     12.41334407	      7.27769291	    -24.99999983
      2.36000000	     -0.03160916	      0.61975694	     11.78680939	     -0.11917197	      1.03452902	      0.00940754	      5.91275979	     -9.73246461	      9.19679352	     -1.50734189	     -2.75885306	     -0.55610206	    -41.10839875	    -81.92272151	    102.66542036	    -79.73818699	   -155.31131049	     38.50030162	    -21.83714801	     10.53140201	      0.77331208	    -13.03913044	    -22.41029246	    -34.80371039	     -1.22888842	     58.23377907	    -37.68161706	     -5.24169751	     72.03255566	     12.51001843	      7.18022226	    -24.99999983
      2.37000000	     -0.05546334	      0.75968582	     11.61345145	     -0.11925770	      1.03457910	      0.00940406	      5.90072282	     -9.15185551	      9.44278949	     -1.27379341	     -2.05541618	     -0.90001276	    -44.98826396	    -81.29730882	     99.20924422	    -78.10665131	   -151.92198670	     42.05537682	    -23.64571614	     10.32758784	      1.36337474	    -12.51152054	    -22.81121470	    -34.38320132	     -1.46850183	     57.98558570	    -38.08233574	     -6.18099117	     71.73150188	     14.64790822	      5.32383965	    -24.99999983
